<svg xmlns="http://www.w3.org/2000/svg" viewBox="0 0 800 600" role="img"><defs><linearGradient id="s" x1="0" y1="0" x2="0" y2="1"><stop offset="0" stop-color="#CDB4DB"/><stop offset="1" stop-color="#F3E9F7"/></linearGradient></defs><rect width="800" height="600" fill="url(#s)"/><rect y="430" width="800" height="170" fill="#A8A29E"/><rect x="200" y="70" width="400" height="360" rx="6" fill="#2A9D8F"/><rect x="220" y="100" width="25" height="32" rx="3" fill="#FDF6E3" opacity=".9"/><rect x="220" y="155" width="25" height="32" rx="3" fill="#FDF6E3" opacity=".9"/><rect x="220" y="210" width="25" height="32" rx="3" fill="#FDF6E3" opacity=".9"/><rect x="220" y="265" width="25" height="32" rx="3" fill="#FDF6E3" opacity=".9"/><rect x="220" y="320" width="25" height="32" rx="3" fill="#FDF6E3" opacity=".9"/><rect x="265" y="100" width="25" height="32" rx="3" fill="#FDF6E3" opacity=".9"/><rect x="265" y="155" width="25" height="32" rx="3" fill="#FDF6E3" opacity=".9"/><rect x="265" y="210" width="25" height="32" rx="3" fill="#FDF6E3" opacity=".9"/><rect x="265" y="265" width="25" height="32" rx="3" fill="#FDF6E3" opacity=".9"/><rect x="265" y="320" width="25" height="32" rx="3" fill="#FDF6E3" opacity=".9"/><rect x="310" y="100" width="25" height="32" rx="3" fill="#FDF6E3" opacity=".9"/><rect x="310" y="155" width="25" height="32" rx="3" fill="#FDF6E3" opacity=".9"/><rect x="310" y="210" width="25" height="32" rx="3" fill="#FDF6E3" opacity=".9"/><rect x="310" y="265" width="25" height="32" rx="3" fill="#FDF6E3" opacity=".9"/><rect x="310" y="320" width="25" height="32" rx="3" fill="#FDF6E3" opacity=".9"/><rect x="355" y="100" width="25" height="32" rx="3" fill="#FDF6E3" opacity=".9"/><rect x="355" y="155" width="25" height="32" rx="3" fill="#FDF6E3" opacity=".9"/><rect x="355" y="210" width="25" height="32" rx="3" fill="#FDF6E3" opacity=".9"/><rect x="355" y="265" width="25" height="32" rx="3" fill="#FDF6E3" opacity=".9"/><rect x="355" y="320" width="25" height="32" rx="3" fill="#FDF6E3" opacity=".9"/><rect x="400" y="100" width="25" height="32" rx="3" fill="#FDF6E3" opacity=".9"/><rect x="400" y="155" width="25" height="32" rx="3" fill="#FDF6E3" opacity=".9"/><rect x="400" y="210" width="25" height="32" rx="3" fill="#FDF6E3" opacity=".9"/><rect x="400" y="265" width="25" height="32" rx="3" fill="#FDF6E3" opacity=".9"/><rect x="400" y="320" width="25" height="32" rx="3" fill="#FDF6E3" opacity=".9"/><rect x="445" y="100" width="25" height="32" rx="3" fill="#FDF6E3" opacity=".9"/><rect x="445" y="155" width="25" height="32" rx="3" fill="#FDF6E3" opacity=".9"/><rect x="445" y="210" width="25" height="32" rx="3" fill="#FDF6E3" opacity=".9"/><rect x="445" y="265" width="25" height="32" rx="3" fill="#FDF6E3" opacity=".9"/><rect x="445" y="320" width="25" height="32" rx="3" fill="#FDF6E3" opacity=".9"/><rect x="490" y="100" width="25" height="32" rx="3" fill="#FDF6E3" opacity=".9"/><rect x="490" y="155" width="25" height="32" rx="3" fill="#FDF6E3" opacity=".9"/><rect x="490" y="210" width="25" height="32" rx="3" fill="#FDF6E3" opacity=".9"/><rect x="490" y="265" width="25" height="32" rx="3" fill="#FDF6E3" opacity=".9"/><rect x="490" y="320" width="25" height="32" rx="3" fill="#FDF6E3" opacity=".9"/><rect x="535" y="100" width="25" height="32" rx="3" fill="#FDF6E3" opacity=".9"/><rect x="535" y="155" width="25" height="32" rx="3" fill="#FDF6E3" opacity=".9"/><rect x="535" y="210" width="25" height="32" rx="3" fill="#FDF6E3" opacity=".9"/><rect x="535" y="265" width="25" height="32" rx="3" fill="#FDF6E3" opacity=".9"/><rect x="535" y="320" width="25" height="32" rx="3" fill="#FDF6E3" opacity=".9"/><g fill="#2F6B3A"><rect x="90" y="300" width="12" height="140" fill="#7A5230"/><ellipse cx="96" cy="300" rx="60" ry="18"/><rect x="690" y="320" width="12" height="120" fill="#7A5230"/><ellipse cx="696" cy="320" rx="55" ry="16"/></g></svg>
